<?xml version="1.0" encoding="UTF-8" standalone="no" ?>
<!DOCTYPE svg PUBLIC "-//W3C//DTD SVG 1.1//EN" "http://www.w3.org/Graphics/SVG/1.1/DTD/svg11.dtd">
<svg xmlns="http://www.w3.org/2000/svg" xmlns:xlink="http://www.w3.org/1999/xlink" version="1.1" width="800" height="100" viewBox="0 0 800 100" xml:space="preserve">
<desc>Created with Fabric.js 4.6.0</desc>
<defs>
</defs>
<g transform="matrix(-3.27 0 0 -0.58 400 49.66)" id="Q8wPmKjUo1NSaom8lqIYM"  >
<path style="stroke: rgb(215,202,158); stroke-width: 3; stroke-dasharray: none; stroke-linecap: butt; stroke-dashoffset: 0; stroke-linejoin: miter; stroke-miterlimit: 4; fill: rgb(50,57,72); fill-rule: nonzero; opacity: 1;" vector-effect="non-scaling-stroke"  transform=" translate(0, 0)" d="M -0.27482 -82.42811 L 101.89300999999999 -67.58202 L 121.76553999999999 -51.92378 C 121.76553999999999 -51.92378 121.75753999999999 -34.53587 121.74207999999999 -0.9479000000000042 C 121.72661999999998 32.640069999999994 121.70369999999998 82.4281 121.70369999999998 82.4281 L -121.76552000000002 82.22842 L -121.70915000000002 -51.923779999999994 L -102.98504000000003 -67.58202 z" stroke-linecap="round" />
</g>
<g transform="matrix(1 0 0 1 224.13 141.65)" id="ngl3PklkXema9_CuRpm1N"  >
<path style="stroke: rgb(0,0,0); stroke-width: 1; stroke-dasharray: none; stroke-linecap: butt; stroke-dashoffset: 0; stroke-linejoin: miter; stroke-miterlimit: 4; fill: rgb(255,255,255); fill-rule: nonzero; opacity: 1;" vector-effect="non-scaling-stroke"  transform=" translate(0, 0)" d="M 0 0" stroke-linecap="round" />
</g>
<g transform="matrix(1 0 0 1 250 85.1)" id="F9cOtVHlcpZzNXVTM94fl"  >
<path style="stroke: rgb(0,0,0); stroke-width: 1; stroke-dasharray: none; stroke-linecap: butt; stroke-dashoffset: 0; stroke-linejoin: miter; stroke-miterlimit: 4; fill: rgb(255,255,255); fill-rule: nonzero; opacity: 1;" vector-effect="non-scaling-stroke"  transform=" translate(0, 0)" d="M 0 0" stroke-linecap="round" />
</g>
<g transform="matrix(-3.27 0 0 -0.58 400 50.34)" id="dEKrvcrjr5LZYtQd71OQp"  >
<path style="stroke: rgb(215,202,158); stroke-width: 3; stroke-dasharray: none; stroke-linecap: butt; stroke-dashoffset: 0; stroke-linejoin: miter; stroke-miterlimit: 4; fill: rgb(50,57,72); fill-rule: nonzero; opacity: 1;" vector-effect="non-scaling-stroke"  transform=" translate(0, 0)" d="M -0.2439 -82.42811 L 103.86391 -50.76807000000001 L 116.08319 -50.76807000000001 L 121.73461 82.42810999999999 L -121.73461 82.22842999999999 L -116.08319 -54.00289000000002 L -103.86391 -50.76807000000002 z" stroke-linecap="round" />
</g>
</svg>