<?xml version="1.0" encoding="UTF-8" standalone="no" ?>
<!DOCTYPE svg PUBLIC "-//W3C//DTD SVG 1.1//EN" "http://www.w3.org/Graphics/SVG/1.1/DTD/svg11.dtd">
<svg xmlns="http://www.w3.org/2000/svg" xmlns:xlink="http://www.w3.org/1999/xlink" version="1.1" width="815" height="114" viewBox="-8 -7 815 114" xml:space="preserve">
<desc>Created with Fabric.js 4.6.0</desc>
<defs>
</defs>
<g transform="matrix(-1 0 0 -1 400 50)" id="Q8wPmKjUo1NSaom8lqIYM"  >
<path style="stroke: rgb(233,198,255); stroke-width: 2; stroke-dasharray: none; stroke-linecap: butt; stroke-dashoffset: 0; stroke-linejoin: miter; stroke-miterlimit: 4; fill: rgb(83,21,59); fill-rule: nonzero; opacity: 1;" vector-effect="non-scaling-stroke"  transform=" translate(0, 0)" d="M -0.9028 -46.58243 L 240.60151 -50 L 400 -30.00001 C 400 -30.00001 399.97371 -18.52435 399.92292 1.1534499999999994 C 399.87212999999997 20.83125 399.79684 49.99999 399.79684 49.99999 L -400.00001 49.88301 L -399.81482 -28.711200000000005 L -240.60151 -49.999990000000004 z" stroke-linecap="round" />
</g>
<g transform="matrix(1 0 0 1 250 85.1)" id="F9cOtVHlcpZzNXVTM94fl"  >
<path style="stroke: rgb(233,198,255); stroke-width: 2; stroke-dasharray: none; stroke-linecap: butt; stroke-dashoffset: 0; stroke-linejoin: miter; stroke-miterlimit: 4; fill: rgb(255,255,255); fill-rule: nonzero; opacity: 1;" vector-effect="non-scaling-stroke"  transform=" translate(0, 0)" d="M 0 0" stroke-linecap="round" />
</g>
<g transform="matrix(-1 0 0 -1 399 50)" id="dEKrvcrjr5LZYtQd71OQp"  >
<path style="stroke: rgb(233,198,255); stroke-width: 2; stroke-dasharray: none; stroke-linecap: butt; stroke-dashoffset: 0; stroke-linejoin: miter; stroke-miterlimit: 4; fill: rgb(64,42,83); fill-rule: nonzero; opacity: 1;" vector-effect="non-scaling-stroke"  transform=" translate(0, 0)" d="M -0.87569 -50 L 380 -30.5 L 400 -10.10285 L 399.85116 50 L -400.00000000000006 49.87888 L -400.00000000000006 -10.5 L -380.00000000000006 -30.5 z" stroke-linecap="round" />
</g>
<g transform="matrix(0.41 0.41 0.31 -0.31 15.46 41.33)" id="ch_aHjBsZm_qfy6PO9bHT"  >
<path style="stroke: rgb(233,198,255); stroke-width: 2; stroke-dasharray: none; stroke-linecap: butt; stroke-dashoffset: 0; stroke-linejoin: miter; stroke-miterlimit: 4; fill: rgb(225,204,135); fill-rule: nonzero; opacity: 1;" vector-effect="non-scaling-stroke"  transform=" translate(0, 0)" d="M 0 -34.75974 L 0 34.75973" stroke-linecap="round" />
</g>
<g transform="matrix(1 0 0 1 400 85.41)" style="" id="khj6QEuN0tmiBJLaomlhz"  >
		<text xml:space="preserve" font-family="Open Sans" font-size="6" font-style="normal" font-weight="normal" letter-spacing="-0.048" line-height="1.16" style="stroke: rgb(233,198,255); stroke-width: 0; stroke-dasharray: none; stroke-linecap: butt; stroke-dashoffset: 0; stroke-linejoin: miter; stroke-miterlimit: 4; fill: rgb(233,198,255); fill-rule: nonzero; opacity: 1; white-space: pre;" ><tspan x="-17.88" y="1.88" style="stroke: rgb(233,198,255); font-family: 'Open Sans'; font-size: 6px; font-style: normal; font-weight: normal; fill: rgb(233,198,255); ">■</tspan><tspan x="-11.93" y="1.88" style="stroke: rgb(233,198,255); font-family: 'Open Sans'; font-size: 6px; font-style: normal; font-weight: normal; fill: rgb(233,198,255); ">■</tspan><tspan x="-5.98" y="1.88" style="stroke: rgb(233,198,255); font-family: 'Open Sans'; font-size: 6px; font-style: normal; font-weight: normal; fill: rgb(233,198,255); ">■</tspan><tspan x="-0.02" y="1.88" style="stroke: rgb(233,198,255); font-family: 'Open Sans'; font-size: 6px; font-style: normal; font-weight: normal; fill: rgb(233,198,255); ">■</tspan><tspan x="5.93" y="1.88" style="stroke: rgb(233,198,255); font-family: 'Open Sans'; font-size: 6px; font-style: normal; font-weight: normal; fill: rgb(233,198,255); ">■</tspan><tspan x="11.88" y="1.88" style="stroke: rgb(233,198,255); font-family: 'Open Sans'; font-size: 6px; font-style: normal; font-weight: normal; fill: rgb(233,198,255); ">■</tspan></text>
</g>
<g transform="matrix(0.02 0.02 -0.44 0.44 27.9 53.91)" id="AJe0X_lsxIg2vtwOqIApc"  >
<path style="stroke: rgb(233,198,255); stroke-width: 2; stroke-dasharray: none; stroke-linecap: butt; stroke-dashoffset: 0; stroke-linejoin: miter; stroke-miterlimit: 4; fill: rgb(64,42,83); fill-rule: nonzero; opacity: 1;" vector-effect="non-scaling-stroke"  transform=" translate(0, 0)" d="M 400 -29.85285 L 399.85116 30.249999999999996 L -400.00000000000006 30.128879999999995 L 369.01556999999997 2.203299999999995 L -400.00000000000006 -30.249990000000007 z" stroke-linecap="round" />
</g>
<g transform="matrix(0.41 0.41 0.31 -0.31 41.57 65.93)" id="PgfhJAV_93QFDf5pmIDAp"  >
<path style="stroke: rgb(233,198,255); stroke-width: 2; stroke-dasharray: none; stroke-linecap: butt; stroke-dashoffset: 0; stroke-linejoin: miter; stroke-miterlimit: 4; fill: rgb(225,204,135); fill-rule: nonzero; opacity: 1;" vector-effect="non-scaling-stroke"  transform=" translate(0, 0)" d="M 0 -34.75974 L 0 34.75973" stroke-linecap="round" />
</g>
<g transform="matrix(-0.41 0.41 -0.31 -0.31 785.25 41.51)" id="kj4qdkf0o9TAyuUCFCUfB"  >
<path style="stroke: rgb(233,198,255); stroke-width: 2; stroke-dasharray: none; stroke-linecap: butt; stroke-dashoffset: 0; stroke-linejoin: miter; stroke-miterlimit: 4; fill: rgb(225,204,135); fill-rule: nonzero; opacity: 1;" vector-effect="non-scaling-stroke"  transform=" translate(0, 0)" d="M 0 -34.75974 L 0 34.75973" stroke-linecap="round" />
</g>
<g transform="matrix(-0.02 0.02 0.45 0.45 772.81 54.09)" id="KdQlLsbPUVD2-QvcPtcwu"  >
<path style="stroke: rgb(233,198,255); stroke-width: 2; stroke-dasharray: none; stroke-linecap: butt; stroke-dashoffset: 0; stroke-linejoin: miter; stroke-miterlimit: 4; fill: rgb(64,42,83); fill-rule: nonzero; opacity: 1;" vector-effect="non-scaling-stroke"  transform=" translate(0, 0)" d="M 400 -29.85285 L 399.85116 30.249999999999996 L -400.00000000000006 30.128879999999995 L 370.34396999999996 2.232249999999997 L -400.00000000000006 -30.24999 z" stroke-linecap="round" />
</g>
<g transform="matrix(-0.41 0.41 -0.31 -0.31 759.14 66.11)" id="ZSyulc1oP9vjcpoQw1M73"  >
<path style="stroke: rgb(233,198,255); stroke-width: 2; stroke-dasharray: none; stroke-linecap: butt; stroke-dashoffset: 0; stroke-linejoin: miter; stroke-miterlimit: 4; fill: rgb(225,204,135); fill-rule: nonzero; opacity: 1;" vector-effect="non-scaling-stroke"  transform=" translate(0, 0)" d="M 0 -34.75974 L 0 34.75973" stroke-linecap="round" />
</g>
<g transform="matrix(1.03 0 0 0.47 400 95.02)" id="nsL42yLhHYd_TUvvMAgKy"  >
<path style="stroke: rgb(233,198,255); stroke-width: 2; stroke-dasharray: none; stroke-linecap: butt; stroke-dashoffset: 0; stroke-linejoin: miter; stroke-miterlimit: 4; fill: rgb(64,42,83); fill-rule: nonzero; opacity: 1;" vector-effect="non-scaling-stroke"  transform=" translate(0, 0)" d="M -19.40704 -9.46093 L 19.40704 -9.46093 L 0.48667000000000016 9.460939999999999 z" stroke-linecap="round" />
</g>
</svg>