<?xml version="1.0" encoding="UTF-8" standalone="no" ?>
<!DOCTYPE svg PUBLIC "-//W3C//DTD SVG 1.1//EN" "http://www.w3.org/Graphics/SVG/1.1/DTD/svg11.dtd">
<svg xmlns="http://www.w3.org/2000/svg" xmlns:xlink="http://www.w3.org/1999/xlink" version="1.1" width="800" height="100" viewBox="0 0 800 100" xml:space="preserve">
<desc>Created with Fabric.js 4.6.0</desc>
<defs>
</defs>
<g transform="matrix(-1 0 0 -1 399.5 50.5)" id="Q8wPmKjUo1NSaom8lqIYM"  >
<path style="stroke: rgb(215,202,158); stroke-width: 2; stroke-dasharray: none; stroke-linecap: butt; stroke-dashoffset: 0; stroke-linejoin: miter; stroke-miterlimit: 4; fill: rgb(88,76,78); fill-rule: nonzero; opacity: 1;" vector-effect="non-scaling-stroke"  transform=" translate(0, 0)" d="M -0.5 -49.5 L 240.10151 -49.5 L 400.5 -50.5 C 400.5 -50.5 399.47372 -18.02435 399.42293 1.6534499999999994 C 399.37214 21.33125 399.29685 50.49999 399.29685 50.49999 L -400.49999999999994 50.38301 L -400.49999999999994 -29.5 L -40.49999999999994 -29.5 z" stroke-linecap="round" />
</g>
<g transform="matrix(1 0 0 1 250 85.1)" id="F9cOtVHlcpZzNXVTM94fl"  >
<path style="stroke: rgb(0,0,0); stroke-width: 1; stroke-dasharray: none; stroke-linecap: butt; stroke-dashoffset: 0; stroke-linejoin: miter; stroke-miterlimit: 4; fill: rgb(255,255,255); fill-rule: nonzero; opacity: 1;" vector-effect="non-scaling-stroke"  transform=" translate(0, 0)" d="M 0 0" stroke-linecap="round" />
</g>
<g transform="matrix(-1 0 0 -1 400 50)" id="dEKrvcrjr5LZYtQd71OQp"  >
<path style="stroke: rgb(245,239,219); stroke-width: 2; stroke-dasharray: none; stroke-linecap: butt; stroke-dashoffset: 0; stroke-linejoin: miter; stroke-miterlimit: 4; fill: rgb(83,83,77); fill-rule: nonzero; opacity: 1;" vector-effect="non-scaling-stroke"  transform=" translate(0, 0)" d="M 280 -30 L 320 -50 L 400 -30 L 399.85116 50 L -400.00000000000006 49.87888 L -400.00000000000006 -10.5 L -380.00000000000006 -30 z" stroke-linecap="round" />
</g>
<g transform="matrix(1 0 0 1 552.74 77.67)" style="" id="np6tLED0-SZcfvXpEwmtO"  >
		<text xml:space="preserve" font-family="Open Sans" font-size="6" font-style="normal" font-weight="normal" line-height="1.16" style="stroke: none; stroke-width: 1; stroke-dasharray: none; stroke-linecap: butt; stroke-dashoffset: 0; stroke-linejoin: miter; stroke-miterlimit: 4; fill: rgb(255,250,234); fill-rule: nonzero; opacity: 1; white-space: pre;" ><tspan x="-83.47" y="1.88" style="stroke-width: 1; font-family: 'Open Sans'; font-size: 6px; font-style: normal; font-weight: normal; fill: rgb(225,204,135); ">■■■■■　　　　■■■■　　■　　　　■■</tspan></text>
</g>
</svg>