<?xml version="1.0" encoding="UTF-8" standalone="no" ?>
<!DOCTYPE svg PUBLIC "-//W3C//DTD SVG 1.1//EN" "http://www.w3.org/Graphics/SVG/1.1/DTD/svg11.dtd">
<svg xmlns="http://www.w3.org/2000/svg" xmlns:xlink="http://www.w3.org/1999/xlink" version="1.1" width="800" height="100" viewBox="0 0 800 100" xml:space="preserve">
<desc>Created with Fabric.js 4.6.0</desc>
<defs>
</defs>
<g transform="matrix(-1 0 0 -1 399 50)" id="Q8wPmKjUo1NSaom8lqIYM"  >
<path style="stroke: rgb(233,198,255); stroke-width: 2; stroke-dasharray: none; stroke-linecap: butt; stroke-dashoffset: 0; stroke-linejoin: miter; stroke-miterlimit: 4; fill: rgb(83,21,59); fill-rule: nonzero; opacity: 1;" vector-effect="non-scaling-stroke"  transform=" translate(-396, -49.5)" d="M 395.10623 3.3834 L 634.19549 0 L 792 19.79999 C 792 19.79999 791.97398 31.160890000000002 791.92369 50.641909999999996 C 791.8734099999999 70.12293 791.7988799999999 98.99999 791.7988799999999 98.99999 L -1.1368683772161603e-13 98.88418 L 0.18333999999988632 21.075900000000004 L 157.80450999999988 -0.000009999999996068709 z" stroke-linecap="round" />
</g>
<g transform="matrix(1 0 0 1 251 85.1)" id="F9cOtVHlcpZzNXVTM94fl"  >
<path style="stroke: rgb(233,198,255); stroke-width: 2; stroke-dasharray: none; stroke-linecap: butt; stroke-dashoffset: 0; stroke-linejoin: miter; stroke-miterlimit: 4; fill: rgb(255,255,255); fill-rule: nonzero; opacity: 1;" vector-effect="non-scaling-stroke"  transform=" translate(0, 0)" d="M 0 0" stroke-linecap="round" />
</g>
<g transform="matrix(-1 0 0 -1 400 50)" id="dEKrvcrjr5LZYtQd71OQp"  >
<path style="stroke: rgb(233,198,255); stroke-width: 2; stroke-dasharray: none; stroke-linecap: butt; stroke-dashoffset: 0; stroke-linejoin: miter; stroke-miterlimit: 4; fill: rgb(64,42,83); fill-rule: nonzero; opacity: 1;" vector-effect="non-scaling-stroke"  transform=" translate(-399, -49.5)" d="M 398.1265 0 L 778.05 19.305 L 798 39.498180000000005 L 797.85153 99 L 0 98.88009 L 0 39.105 L 19.95 19.304999999999996 z" stroke-linecap="round" />
</g>
<g transform="matrix(0.41 0.41 0.31 -0.31 16.46 41.33)" id="ch_aHjBsZm_qfy6PO9bHT"  >
<path style="stroke: rgb(233,198,255); stroke-width: 2; stroke-dasharray: none; stroke-linecap: butt; stroke-dashoffset: 0; stroke-linejoin: miter; stroke-miterlimit: 4; fill: rgb(225,204,135); fill-rule: nonzero; opacity: 1;" vector-effect="non-scaling-stroke"  transform=" translate(0, 0)" d="M 0 -34.75974 L 0 34.75973" stroke-linecap="round" />
</g>
<g transform="matrix(0.02 0.02 -0.45 0.45 28.9 53.91)" id="AJe0X_lsxIg2vtwOqIApc"  >
<path style="stroke: rgb(233,198,255); stroke-width: 2; stroke-dasharray: none; stroke-linecap: butt; stroke-dashoffset: 0; stroke-linejoin: miter; stroke-miterlimit: 4; fill: rgb(64,42,83); fill-rule: nonzero; opacity: 1;" vector-effect="non-scaling-stroke"  transform=" translate(0, 0)" d="M 400 -29.85285 L 399.85116 30.249999999999996 L -400.00000000000006 30.128879999999995 L 369.01556999999997 2.203299999999995 L -400.00000000000006 -30.249990000000007 z" stroke-linecap="round" />
</g>
<g transform="matrix(0.41 0.41 0.31 -0.31 42.57 65.93)" id="PgfhJAV_93QFDf5pmIDAp"  >
<path style="stroke: rgb(233,198,255); stroke-width: 2; stroke-dasharray: none; stroke-linecap: butt; stroke-dashoffset: 0; stroke-linejoin: miter; stroke-miterlimit: 4; fill: rgb(225,204,135); fill-rule: nonzero; opacity: 1;" vector-effect="non-scaling-stroke"  transform=" translate(0, 0)" d="M 0 -34.75974 L 0 34.75973" stroke-linecap="round" />
</g>
<g transform="matrix(-0.41 0.41 -0.31 -0.31 786.25 41.51)" id="kj4qdkf0o9TAyuUCFCUfB"  >
<path style="stroke: rgb(233,198,255); stroke-width: 2; stroke-dasharray: none; stroke-linecap: butt; stroke-dashoffset: 0; stroke-linejoin: miter; stroke-miterlimit: 4; fill: rgb(225,204,135); fill-rule: nonzero; opacity: 1;" vector-effect="non-scaling-stroke"  transform=" translate(0, 0)" d="M 0 -34.75974 L 0 34.75973" stroke-linecap="round" />
</g>
<g transform="matrix(-0.02 0.02 0.45 0.45 773.81 54.09)" id="KdQlLsbPUVD2-QvcPtcwu"  >
<path style="stroke: rgb(233,198,255); stroke-width: 2; stroke-dasharray: none; stroke-linecap: butt; stroke-dashoffset: 0; stroke-linejoin: miter; stroke-miterlimit: 4; fill: rgb(64,42,83); fill-rule: nonzero; opacity: 1;" vector-effect="non-scaling-stroke"  transform=" translate(0, 0)" d="M 400 -29.85285 L 399.85116 30.249999999999996 L -400.00000000000006 30.128879999999995 L 370.34396999999996 2.232249999999997 L -400.00000000000006 -30.24999 z" stroke-linecap="round" />
</g>
<g transform="matrix(-0.41 0.41 -0.31 -0.31 760.14 66.11)" id="ZSyulc1oP9vjcpoQw1M73"  >
<path style="stroke: rgb(233,198,255); stroke-width: 2; stroke-dasharray: none; stroke-linecap: butt; stroke-dashoffset: 0; stroke-linejoin: miter; stroke-miterlimit: 4; fill: rgb(225,204,135); fill-rule: nonzero; opacity: 1;" vector-effect="non-scaling-stroke"  transform=" translate(0, 0)" d="M 0 -34.75974 L 0 34.75973" stroke-linecap="round" />
</g>
<g transform="matrix(2.01 0 0 -1.76 401 94.5)" id="nsL42yLhHYd_TUvvMAgKy"  >
<path style="stroke: rgb(233,198,255); stroke-width: 2; stroke-dasharray: none; stroke-linecap: butt; stroke-dashoffset: 0; stroke-linejoin: miter; stroke-miterlimit: 4; fill: rgb(64,42,83); fill-rule: nonzero; opacity: 1;" vector-effect="non-scaling-stroke"  transform=" translate(0, 0)" d="M -9.95233 1.86764 L -19.407040000000002 -1.9839499999999999 L 19.407039999999995 -1.9839499999999999 L 9.527329999999996 1.9839500000000003 z" stroke-linecap="round" />
</g>
<g transform="matrix(1.03 0 0 0.48 401 95.5)" id="2W2oCpFrhLHnOfqh0QabL"  >
<path style="stroke: rgb(233,198,255); stroke-width: 2; stroke-dasharray: none; stroke-linecap: butt; stroke-dashoffset: 0; stroke-linejoin: miter; stroke-miterlimit: 4; fill: none; fill-rule: nonzero; opacity: 1;" vector-effect="non-scaling-stroke"  transform=" translate(0, 0)" d="M -19.40704 -9.46093 L 19.40704 -9.46093 L 0.48667000000000016 9.460939999999999 z" stroke-linecap="round" />
</g>
</svg>