<?xml version="1.0" encoding="UTF-8" standalone="no" ?>
<!DOCTYPE svg PUBLIC "-//W3C//DTD SVG 1.1//EN" "http://www.w3.org/Graphics/SVG/1.1/DTD/svg11.dtd">
<svg xmlns="http://www.w3.org/2000/svg" xmlns:xlink="http://www.w3.org/1999/xlink" version="1.1" width="160" height="160" viewBox="0 0 160 160" xml:space="preserve">
<desc>Created with Fabric.js 4.6.0</desc>
<defs>
</defs>
<g transform="matrix(1.5 0 0 0.75 103.4 35)" id="lJ31aeqf3Ae_coBURPv6q"  >
<path style="stroke: rgb(62,14,101); stroke-width: 0; stroke-dasharray: none; stroke-linecap: butt; stroke-dashoffset: 0; stroke-linejoin: miter; stroke-miterlimit: 4; fill: rgb(228,231,255); fill-rule: nonzero; opacity: 1;" vector-effect="non-scaling-stroke"  transform=" translate(0, 0)" d="M -10 0 L 10 -20 L 10 0 L -10 20 z" stroke-linecap="round" />
</g>
<g transform="matrix(1.5 0 0 0.75 103.4 57.21)" id="2qRSx5XfVBK5thRZRoBTB"  >
<path style="stroke: rgb(62,14,101); stroke-width: 0; stroke-dasharray: none; stroke-linecap: butt; stroke-dashoffset: 0; stroke-linejoin: miter; stroke-miterlimit: 4; fill: rgb(228,231,255); fill-rule: nonzero; opacity: 1;" vector-effect="non-scaling-stroke"  transform=" translate(0, 0)" d="M -10 0 L 10 -20 L 10 0 L -10 20 z" stroke-linecap="round" />
</g>
<g transform="matrix(1.5 0 0 0.75 103.4 80)" id="TCy5uZW1vdImSDChhqO0r"  >
<path style="stroke: rgb(62,14,101); stroke-width: 0; stroke-dasharray: none; stroke-linecap: butt; stroke-dashoffset: 0; stroke-linejoin: miter; stroke-miterlimit: 4; fill: rgb(228,231,255); fill-rule: nonzero; opacity: 1;" vector-effect="non-scaling-stroke"  transform=" translate(0, 0)" d="M -10 0 L 10 -20 L 10 0 L -10 20 z" stroke-linecap="round" />
</g>
<g transform="matrix(1.5 0 0 0.75 103.4 102.22)" id="GjJ8w0Ga384dsCj7lERUy"  >
<path style="stroke: rgb(62,14,101); stroke-width: 0; stroke-dasharray: none; stroke-linecap: butt; stroke-dashoffset: 0; stroke-linejoin: miter; stroke-miterlimit: 4; fill: rgb(228,231,255); fill-rule: nonzero; opacity: 1;" vector-effect="non-scaling-stroke"  transform=" translate(0, 0)" d="M -10 0 L 10 -20 L 10 0 L -10 20 z" stroke-linecap="round" />
</g>
<g transform="matrix(1.5 0 0 0.75 57.3 57.79)" id="OKWtzRBTggcjinI8ViPZ0"  >
<path style="stroke: rgb(62,14,101); stroke-width: 0; stroke-dasharray: none; stroke-linecap: butt; stroke-dashoffset: 0; stroke-linejoin: miter; stroke-miterlimit: 4; fill: rgb(228,231,255); fill-rule: nonzero; opacity: 1;" vector-effect="non-scaling-stroke"  transform=" translate(0, 0)" d="M -10 0 L 10 -20 L 10 0 L -10 20 z" stroke-linecap="round" />
</g>
<g transform="matrix(1.5 0 0 0.75 57.3 79.99)" id="xuujR52xeqCskH5mWTB6b"  >
<path style="stroke: rgb(62,14,101); stroke-width: 0; stroke-dasharray: none; stroke-linecap: butt; stroke-dashoffset: 0; stroke-linejoin: miter; stroke-miterlimit: 4; fill: rgb(228,231,255); fill-rule: nonzero; opacity: 1;" vector-effect="non-scaling-stroke"  transform=" translate(0, 0)" d="M -10 0 L 10 -20 L 10 0 L -10 20 z" stroke-linecap="round" />
</g>
<g transform="matrix(1.5 0 0 0.75 57.3 102.78)" id="k70rZl1G1C1yj9BhVNS3x"  >
<path style="stroke: rgb(62,14,101); stroke-width: 0; stroke-dasharray: none; stroke-linecap: butt; stroke-dashoffset: 0; stroke-linejoin: miter; stroke-miterlimit: 4; fill: rgb(228,231,255); fill-rule: nonzero; opacity: 1;" vector-effect="non-scaling-stroke"  transform=" translate(0, 0)" d="M -10 0 L 10 -20 L 10 0 L -10 20 z" stroke-linecap="round" />
</g>
<g transform="matrix(1.5 0 0 0.75 57.3 125)" id="UP8QMb02iBWHFCOphoNMG"  >
<path style="stroke: rgb(62,14,101); stroke-width: 0; stroke-dasharray: none; stroke-linecap: butt; stroke-dashoffset: 0; stroke-linejoin: miter; stroke-miterlimit: 4; fill: rgb(228,231,255); fill-rule: nonzero; opacity: 1;" vector-effect="non-scaling-stroke"  transform=" translate(0, 0)" d="M -10 0 L 10 -20 L 10 0 L -10 20 z" stroke-linecap="round" />
</g>
</svg>