<?xml version="1.0" encoding="UTF-8" standalone="no" ?>
<!DOCTYPE svg PUBLIC "-//W3C//DTD SVG 1.1//EN" "http://www.w3.org/Graphics/SVG/1.1/DTD/svg11.dtd">
<svg xmlns="http://www.w3.org/2000/svg" xmlns:xlink="http://www.w3.org/1999/xlink" version="1.1" width="160" height="160" viewBox="0 0 160 160" xml:space="preserve">
<desc>Created with Fabric.js 4.6.0</desc>
<defs>
</defs>
<g transform="matrix(0.38 0 0 0.54 50 93.33)" id="eh7-d-sf0PKvE1fuIaL3n"  >
<path style="stroke: rgb(0,0,0); stroke-width: 0; stroke-dasharray: none; stroke-linecap: butt; stroke-dashoffset: 0; stroke-linejoin: miter; stroke-miterlimit: 4; fill: rgb(228,231,255); fill-rule: nonzero; opacity: 1;" vector-effect="non-scaling-stroke"  transform=" translate(0, 0)" d="M 0 -55.29648 L 20 4.240929999999999 L 80 -15.759070000000001 L 80 24.24093 L 20 44.24093 L 16.41638 55.29649 L -16.41638 55.29649 L -20 44.24093 L -80 24.24093 L -80 -15.759070000000001 L -20 4.240929999999999 z" stroke-linecap="round" />
</g>
<g transform="matrix(0.38 0 0 0.54 110 93.33)" id="G1-A84TBnJ25STuKSUXm-"  >
<path style="stroke: rgb(0,0,0); stroke-width: 0; stroke-dasharray: none; stroke-linecap: butt; stroke-dashoffset: 0; stroke-linejoin: miter; stroke-miterlimit: 4; fill: rgb(228,231,255); fill-rule: nonzero; opacity: 1;" vector-effect="non-scaling-stroke"  transform=" translate(0, 0)" d="M 0 -55.55556 L 20 4.5 L 80 -15.5 L 80 24.5 L 20 44.5 L 16.41638 55.55556 L -16.41638 55.55556 L -20 44.5 L -80 24.5 L -80 -15.5 L -20 4.5 z" stroke-linecap="round" />
</g>
<g transform="matrix(0.36 0.36 -0.36 0.36 80 41.47)" id="KQeuVrP-YVwD1VxrR3AL5"  >
<path style="stroke: rgb(180,254,137); stroke-width: 0; stroke-dasharray: none; stroke-linecap: butt; stroke-dashoffset: 0; stroke-linejoin: miter; stroke-miterlimit: 4; fill: rgb(228,231,255); fill-rule: nonzero; opacity: 1;" vector-effect="non-scaling-stroke"  transform=" translate(0, 0)" d="M -25.15011 -25.15011 L 12.238620000000001 -25.15011 L 25.15011 25.15011 L -25.15011 12.238620000000001 z" stroke-linecap="round" />
</g>
</svg>