<?xml version="1.0" encoding="UTF-8" standalone="no" ?>
<!DOCTYPE svg PUBLIC "-//W3C//DTD SVG 1.1//EN" "http://www.w3.org/Graphics/SVG/1.1/DTD/svg11.dtd">
<svg xmlns="http://www.w3.org/2000/svg" xmlns:xlink="http://www.w3.org/1999/xlink" version="1.1" width="160" height="160" viewBox="0 0 160 160" xml:space="preserve">
<desc>Created with Fabric.js 4.6.0</desc>
<defs>
</defs>
<g transform="matrix(0.55 0 0 0.55 80 30.78)" id="96_vz66IrCDyN4JRN1XWv"  >
<path style="stroke: rgb(173,86,183); stroke-width: 0; stroke-dasharray: none; stroke-linecap: butt; stroke-dashoffset: 0; stroke-linejoin: miter; stroke-miterlimit: 4; fill: rgb(228,231,255); fill-rule: nonzero; opacity: 1;" vector-effect="non-scaling-stroke"  transform=" translate(0, 0)" d="M -16.80251 -16.80251 L 16.8025 -16.80251 L 16.8025 16.8025 L -16.80251 16.8025 z" stroke-linecap="round" />
</g>
<g transform="matrix(0.55 0 0 0.55 80 129.24)" id="Lzq5RyrqDNsbg_I4ei5tR"  >
<path style="stroke: rgb(173,86,183); stroke-width: 0; stroke-dasharray: none; stroke-linecap: butt; stroke-dashoffset: 0; stroke-linejoin: miter; stroke-miterlimit: 4; fill: rgb(228,231,255); fill-rule: nonzero; opacity: 1;" vector-effect="non-scaling-stroke"  transform=" translate(0, 0)" d="M -16.80251 -16.80251 L 16.8025 -16.80251 L 16.8025 16.8025 L -16.80251 16.8025 z" stroke-linecap="round" />
</g>
<g transform="matrix(0 0.55 -0.55 0 129.23 80)" id="ZxW_gyPve-YG3kG8-iZX0"  >
<path style="stroke: rgb(173,86,183); stroke-width: 0; stroke-dasharray: none; stroke-linecap: butt; stroke-dashoffset: 0; stroke-linejoin: miter; stroke-miterlimit: 4; fill: rgb(228,231,255); fill-rule: nonzero; opacity: 1;" vector-effect="non-scaling-stroke"  transform=" translate(0, 0)" d="M -16.80251 -16.80251 L 16.8025 -16.80251 L 16.8025 16.8025 L -16.80251 16.8025 z" stroke-linecap="round" />
</g>
<g transform="matrix(0 0.55 -0.55 0 30.77 80)" id="EnPyfb5bN2yShtDT-h9jv"  >
<path style="stroke: rgb(173,86,183); stroke-width: 0; stroke-dasharray: none; stroke-linecap: butt; stroke-dashoffset: 0; stroke-linejoin: miter; stroke-miterlimit: 4; fill: rgb(228,231,255); fill-rule: nonzero; opacity: 1;" vector-effect="non-scaling-stroke"  transform=" translate(0, 0)" d="M -16.80251 -16.80251 L 16.8025 -16.80251 L 16.8025 16.8025 L -16.80251 16.8025 z" stroke-linecap="round" />
</g>
<g transform="matrix(0.39 0.39 -0.39 0.39 114.81 45.19)" id="-hndK74gkKB9qNr3oTLHS"  >
<path style="stroke: rgb(173,86,183); stroke-width: 0; stroke-dasharray: none; stroke-linecap: butt; stroke-dashoffset: 0; stroke-linejoin: miter; stroke-miterlimit: 4; fill: rgb(228,231,255); fill-rule: nonzero; opacity: 1;" vector-effect="non-scaling-stroke"  transform=" translate(0, 0)" d="M -16.80251 -16.80251 L 16.8025 -16.80251 L 16.8025 16.8025 L -16.80251 16.8025 z" stroke-linecap="round" />
</g>
<g transform="matrix(0.39 0.39 -0.39 0.39 45.19 114.81)" id="pw56rs0l4NeM4CywVyg5P"  >
<path style="stroke: rgb(173,86,183); stroke-width: 0; stroke-dasharray: none; stroke-linecap: butt; stroke-dashoffset: 0; stroke-linejoin: miter; stroke-miterlimit: 4; fill: rgb(228,231,255); fill-rule: nonzero; opacity: 1;" vector-effect="non-scaling-stroke"  transform=" translate(0, 0)" d="M -16.80251 -16.80251 L 16.8025 -16.80251 L 16.8025 16.8025 L -16.80251 16.8025 z" stroke-linecap="round" />
</g>
<g transform="matrix(-0.39 0.39 -0.39 -0.39 114.81 114.81)" id="VQ0R9-1YWagRrvbNp3h1s"  >
<path style="stroke: rgb(173,86,183); stroke-width: 0; stroke-dasharray: none; stroke-linecap: butt; stroke-dashoffset: 0; stroke-linejoin: miter; stroke-miterlimit: 4; fill: rgb(228,231,255); fill-rule: nonzero; opacity: 1;" vector-effect="non-scaling-stroke"  transform=" translate(0, 0)" d="M -16.80251 -16.80251 L 16.8025 -16.80251 L 16.8025 16.8025 L -16.80251 16.8025 z" stroke-linecap="round" />
</g>
<g transform="matrix(-0.39 0.39 -0.39 -0.39 45.19 45.19)" id="GgM9OVEUcJt6oRSfrEKt6"  >
<path style="stroke: rgb(173,86,183); stroke-width: 0; stroke-dasharray: none; stroke-linecap: butt; stroke-dashoffset: 0; stroke-linejoin: miter; stroke-miterlimit: 4; fill: rgb(228,231,255); fill-rule: nonzero; opacity: 1;" vector-effect="non-scaling-stroke"  transform=" translate(0, 0)" d="M -16.80251 -16.80251 L 16.8025 -16.80251 L 16.8025 16.8025 L -16.80251 16.8025 z" stroke-linecap="round" />
</g>
<g transform="matrix(0.52 0.19 -0.19 0.52 96.83 33.74)" id="mn6LB5gzqDBjlViV_9qjy"  >
<path style="stroke: rgb(173,86,183); stroke-width: 0; stroke-dasharray: none; stroke-linecap: butt; stroke-dashoffset: 0; stroke-linejoin: miter; stroke-miterlimit: 4; fill: rgb(228,231,255); fill-rule: nonzero; opacity: 1;" vector-effect="non-scaling-stroke"  transform=" translate(0, 0)" d="M -16.80251 -16.80251 L 16.8025 -16.80251 L 16.8025 16.8025 L -16.80251 16.8025 z" stroke-linecap="round" />
</g>
<g transform="matrix(0.52 0.19 -0.19 0.52 63.16 126.26)" id="SeFLUrIspg5dwhHjNopX_"  >
<path style="stroke: rgb(173,86,183); stroke-width: 0; stroke-dasharray: none; stroke-linecap: butt; stroke-dashoffset: 0; stroke-linejoin: miter; stroke-miterlimit: 4; fill: rgb(228,231,255); fill-rule: nonzero; opacity: 1;" vector-effect="non-scaling-stroke"  transform=" translate(0, 0)" d="M -16.80251 -16.80251 L 16.8025 -16.80251 L 16.8025 16.8025 L -16.80251 16.8025 z" stroke-linecap="round" />
</g>
<g transform="matrix(-0.19 0.52 -0.52 -0.19 126.26 96.83)" id="lQXEMe0ncDIy1QeVKU8zE"  >
<path style="stroke: rgb(173,86,183); stroke-width: 0; stroke-dasharray: none; stroke-linecap: butt; stroke-dashoffset: 0; stroke-linejoin: miter; stroke-miterlimit: 4; fill: rgb(228,231,255); fill-rule: nonzero; opacity: 1;" vector-effect="non-scaling-stroke"  transform=" translate(0, 0)" d="M -16.80251 -16.80251 L 16.8025 -16.80251 L 16.8025 16.8025 L -16.80251 16.8025 z" stroke-linecap="round" />
</g>
<g transform="matrix(-0.19 0.52 -0.52 -0.19 33.74 63.15)" id="tHYiWubBrmaYN7DH2bPhK"  >
<path style="stroke: rgb(173,86,183); stroke-width: 0; stroke-dasharray: none; stroke-linecap: butt; stroke-dashoffset: 0; stroke-linejoin: miter; stroke-miterlimit: 4; fill: rgb(228,231,255); fill-rule: nonzero; opacity: 1;" vector-effect="non-scaling-stroke"  transform=" translate(0, 0)" d="M -16.80251 -16.80251 L 16.8025 -16.80251 L 16.8025 16.8025 L -16.80251 16.8025 z" stroke-linecap="round" />
</g>
<g transform="matrix(0.23 0.5 -0.5 0.23 124.62 59.19)" id="8ifEaol1Ttu3XZMDqY9av"  >
<path style="stroke: rgb(173,86,183); stroke-width: 0; stroke-dasharray: none; stroke-linecap: butt; stroke-dashoffset: 0; stroke-linejoin: miter; stroke-miterlimit: 4; fill: rgb(228,231,255); fill-rule: nonzero; opacity: 1;" vector-effect="non-scaling-stroke"  transform=" translate(0, 0)" d="M -16.80251 -16.80251 L 16.8025 -16.80251 L 16.8025 16.8025 L -16.80251 16.8025 z" stroke-linecap="round" />
</g>
<g transform="matrix(0.23 0.5 -0.5 0.23 35.38 100.8)" id="DYgTW70_pt8X8vU6Z45EU"  >
<path style="stroke: rgb(173,86,183); stroke-width: 0; stroke-dasharray: none; stroke-linecap: butt; stroke-dashoffset: 0; stroke-linejoin: miter; stroke-miterlimit: 4; fill: rgb(228,231,255); fill-rule: nonzero; opacity: 1;" vector-effect="non-scaling-stroke"  transform=" translate(0, 0)" d="M -16.80251 -16.80251 L 16.8025 -16.80251 L 16.8025 16.8025 L -16.80251 16.8025 z" stroke-linecap="round" />
</g>
<g transform="matrix(-0.5 0.23 -0.23 -0.5 100.8 124.61)" id="s3XXigaIcNownH_QQK_UY"  >
<path style="stroke: rgb(173,86,183); stroke-width: 0; stroke-dasharray: none; stroke-linecap: butt; stroke-dashoffset: 0; stroke-linejoin: miter; stroke-miterlimit: 4; fill: rgb(228,231,255); fill-rule: nonzero; opacity: 1;" vector-effect="non-scaling-stroke"  transform=" translate(0, 0)" d="M -16.80251 -16.80251 L 16.8025 -16.80251 L 16.8025 16.8025 L -16.80251 16.8025 z" stroke-linecap="round" />
</g>
<g transform="matrix(-0.5 0.23 -0.23 -0.5 59.2 35.37)" id="wdiA4phh_NR5efG66Kn31"  >
<path style="stroke: rgb(173,86,183); stroke-width: 0; stroke-dasharray: none; stroke-linecap: butt; stroke-dashoffset: 0; stroke-linejoin: miter; stroke-miterlimit: 4; fill: rgb(228,231,255); fill-rule: nonzero; opacity: 1;" vector-effect="non-scaling-stroke"  transform=" translate(0, 0)" d="M -16.80251 -16.80251 L 16.8025 -16.80251 L 16.8025 16.8025 L -16.80251 16.8025 z" stroke-linecap="round" />
</g>
</svg>