<?xml version="1.0" encoding="UTF-8" standalone="no" ?>
<!DOCTYPE svg PUBLIC "-//W3C//DTD SVG 1.1//EN" "http://www.w3.org/Graphics/SVG/1.1/DTD/svg11.dtd">
<svg xmlns="http://www.w3.org/2000/svg" xmlns:xlink="http://www.w3.org/1999/xlink" version="1.1" width="160" height="160" viewBox="0 0 160 160" xml:space="preserve">
<desc>Created with Fabric.js 4.6.0</desc>
<defs>
</defs>
<g transform="matrix(0.42 0 0 0.42 80 42.12)" id="96_vz66IrCDyN4JRN1XWv"  >
<path style="stroke: rgb(173,86,183); stroke-width: 0; stroke-dasharray: none; stroke-linecap: butt; stroke-dashoffset: 0; stroke-linejoin: miter; stroke-miterlimit: 4; fill: rgb(228,231,255); fill-rule: nonzero; opacity: 1;" vector-effect="non-scaling-stroke"  transform=" translate(0, 0)" d="M -16.80251 -16.80251 L 16.8025 -16.80251 L 16.8025 16.8025 L -16.80251 16.8025 z" stroke-linecap="round" />
</g>
<g transform="matrix(0.42 0 0 0.42 80 117.9)" id="Lzq5RyrqDNsbg_I4ei5tR"  >
<path style="stroke: rgb(173,86,183); stroke-width: 0; stroke-dasharray: none; stroke-linecap: butt; stroke-dashoffset: 0; stroke-linejoin: miter; stroke-miterlimit: 4; fill: rgb(228,231,255); fill-rule: nonzero; opacity: 1;" vector-effect="non-scaling-stroke"  transform=" translate(0, 0)" d="M -16.80251 -16.80251 L 16.8025 -16.80251 L 16.8025 16.8025 L -16.80251 16.8025 z" stroke-linecap="round" />
</g>
<g transform="matrix(0 0.42 -0.42 0 117.89 80)" id="ZxW_gyPve-YG3kG8-iZX0"  >
<path style="stroke: rgb(173,86,183); stroke-width: 0; stroke-dasharray: none; stroke-linecap: butt; stroke-dashoffset: 0; stroke-linejoin: miter; stroke-miterlimit: 4; fill: rgb(228,231,255); fill-rule: nonzero; opacity: 1;" vector-effect="non-scaling-stroke"  transform=" translate(0, 0)" d="M -16.80251 -16.80251 L 16.8025 -16.80251 L 16.8025 16.8025 L -16.80251 16.8025 z" stroke-linecap="round" />
</g>
<g transform="matrix(0 0.42 -0.42 0 42.11 80)" id="EnPyfb5bN2yShtDT-h9jv"  >
<path style="stroke: rgb(173,86,183); stroke-width: 0; stroke-dasharray: none; stroke-linecap: butt; stroke-dashoffset: 0; stroke-linejoin: miter; stroke-miterlimit: 4; fill: rgb(228,231,255); fill-rule: nonzero; opacity: 1;" vector-effect="non-scaling-stroke"  transform=" translate(0, 0)" d="M -16.80251 -16.80251 L 16.8025 -16.80251 L 16.8025 16.8025 L -16.80251 16.8025 z" stroke-linecap="round" />
</g>
<g transform="matrix(0.3 0.3 -0.3 0.3 106.79 53.21)" id="-hndK74gkKB9qNr3oTLHS"  >
<path style="stroke: rgb(173,86,183); stroke-width: 0; stroke-dasharray: none; stroke-linecap: butt; stroke-dashoffset: 0; stroke-linejoin: miter; stroke-miterlimit: 4; fill: rgb(228,231,255); fill-rule: nonzero; opacity: 1;" vector-effect="non-scaling-stroke"  transform=" translate(0, 0)" d="M -16.80251 -16.80251 L 16.8025 -16.80251 L 16.8025 16.8025 L -16.80251 16.8025 z" stroke-linecap="round" />
</g>
<g transform="matrix(0.3 0.3 -0.3 0.3 53.21 106.79)" id="pw56rs0l4NeM4CywVyg5P"  >
<path style="stroke: rgb(173,86,183); stroke-width: 0; stroke-dasharray: none; stroke-linecap: butt; stroke-dashoffset: 0; stroke-linejoin: miter; stroke-miterlimit: 4; fill: rgb(228,231,255); fill-rule: nonzero; opacity: 1;" vector-effect="non-scaling-stroke"  transform=" translate(0, 0)" d="M -16.80251 -16.80251 L 16.8025 -16.80251 L 16.8025 16.8025 L -16.80251 16.8025 z" stroke-linecap="round" />
</g>
<g transform="matrix(-0.3 0.3 -0.3 -0.3 106.79 106.79)" id="VQ0R9-1YWagRrvbNp3h1s"  >
<path style="stroke: rgb(173,86,183); stroke-width: 0; stroke-dasharray: none; stroke-linecap: butt; stroke-dashoffset: 0; stroke-linejoin: miter; stroke-miterlimit: 4; fill: rgb(228,231,255); fill-rule: nonzero; opacity: 1;" vector-effect="non-scaling-stroke"  transform=" translate(0, 0)" d="M -16.80251 -16.80251 L 16.8025 -16.80251 L 16.8025 16.8025 L -16.80251 16.8025 z" stroke-linecap="round" />
</g>
<g transform="matrix(-0.3 0.3 -0.3 -0.3 53.21 53.21)" id="GgM9OVEUcJt6oRSfrEKt6"  >
<path style="stroke: rgb(173,86,183); stroke-width: 0; stroke-dasharray: none; stroke-linecap: butt; stroke-dashoffset: 0; stroke-linejoin: miter; stroke-miterlimit: 4; fill: rgb(228,231,255); fill-rule: nonzero; opacity: 1;" vector-effect="non-scaling-stroke"  transform=" translate(0, 0)" d="M -16.80251 -16.80251 L 16.8025 -16.80251 L 16.8025 16.8025 L -16.80251 16.8025 z" stroke-linecap="round" />
</g>
<g transform="matrix(0.4 0.14 -0.14 0.4 92.95 44.4)" id="mn6LB5gzqDBjlViV_9qjy"  >
<path style="stroke: rgb(173,86,183); stroke-width: 0; stroke-dasharray: none; stroke-linecap: butt; stroke-dashoffset: 0; stroke-linejoin: miter; stroke-miterlimit: 4; fill: rgb(228,231,255); fill-rule: nonzero; opacity: 1;" vector-effect="non-scaling-stroke"  transform=" translate(0, 0)" d="M -16.80251 -16.80251 L 16.8025 -16.80251 L 16.8025 16.8025 L -16.80251 16.8025 z" stroke-linecap="round" />
</g>
<g transform="matrix(0.4 0.14 -0.14 0.4 67.04 115.6)" id="SeFLUrIspg5dwhHjNopX_"  >
<path style="stroke: rgb(173,86,183); stroke-width: 0; stroke-dasharray: none; stroke-linecap: butt; stroke-dashoffset: 0; stroke-linejoin: miter; stroke-miterlimit: 4; fill: rgb(228,231,255); fill-rule: nonzero; opacity: 1;" vector-effect="non-scaling-stroke"  transform=" translate(0, 0)" d="M -16.80251 -16.80251 L 16.8025 -16.80251 L 16.8025 16.8025 L -16.80251 16.8025 z" stroke-linecap="round" />
</g>
<g transform="matrix(-0.14 0.4 -0.4 -0.14 115.6 92.95)" id="lQXEMe0ncDIy1QeVKU8zE"  >
<path style="stroke: rgb(173,86,183); stroke-width: 0; stroke-dasharray: none; stroke-linecap: butt; stroke-dashoffset: 0; stroke-linejoin: miter; stroke-miterlimit: 4; fill: rgb(228,231,255); fill-rule: nonzero; opacity: 1;" vector-effect="non-scaling-stroke"  transform=" translate(0, 0)" d="M -16.80251 -16.80251 L 16.8025 -16.80251 L 16.8025 16.8025 L -16.80251 16.8025 z" stroke-linecap="round" />
</g>
<g transform="matrix(-0.14 0.4 -0.4 -0.14 44.4 67.03)" id="tHYiWubBrmaYN7DH2bPhK"  >
<path style="stroke: rgb(173,86,183); stroke-width: 0; stroke-dasharray: none; stroke-linecap: butt; stroke-dashoffset: 0; stroke-linejoin: miter; stroke-miterlimit: 4; fill: rgb(228,231,255); fill-rule: nonzero; opacity: 1;" vector-effect="non-scaling-stroke"  transform=" translate(0, 0)" d="M -16.80251 -16.80251 L 16.8025 -16.80251 L 16.8025 16.8025 L -16.80251 16.8025 z" stroke-linecap="round" />
</g>
<g transform="matrix(0.18 0.38 -0.38 0.18 114.34 63.99)" id="8ifEaol1Ttu3XZMDqY9av"  >
<path style="stroke: rgb(173,86,183); stroke-width: 0; stroke-dasharray: none; stroke-linecap: butt; stroke-dashoffset: 0; stroke-linejoin: miter; stroke-miterlimit: 4; fill: rgb(228,231,255); fill-rule: nonzero; opacity: 1;" vector-effect="non-scaling-stroke"  transform=" translate(0, 0)" d="M -16.80251 -16.80251 L 16.8025 -16.80251 L 16.8025 16.8025 L -16.80251 16.8025 z" stroke-linecap="round" />
</g>
<g transform="matrix(0.18 0.38 -0.38 0.18 45.66 96.01)" id="DYgTW70_pt8X8vU6Z45EU"  >
<path style="stroke: rgb(173,86,183); stroke-width: 0; stroke-dasharray: none; stroke-linecap: butt; stroke-dashoffset: 0; stroke-linejoin: miter; stroke-miterlimit: 4; fill: rgb(228,231,255); fill-rule: nonzero; opacity: 1;" vector-effect="non-scaling-stroke"  transform=" translate(0, 0)" d="M -16.80251 -16.80251 L 16.8025 -16.80251 L 16.8025 16.8025 L -16.80251 16.8025 z" stroke-linecap="round" />
</g>
<g transform="matrix(-0.38 0.18 -0.18 -0.38 96.01 114.33)" id="s3XXigaIcNownH_QQK_UY"  >
<path style="stroke: rgb(173,86,183); stroke-width: 0; stroke-dasharray: none; stroke-linecap: butt; stroke-dashoffset: 0; stroke-linejoin: miter; stroke-miterlimit: 4; fill: rgb(228,231,255); fill-rule: nonzero; opacity: 1;" vector-effect="non-scaling-stroke"  transform=" translate(0, 0)" d="M -16.80251 -16.80251 L 16.8025 -16.80251 L 16.8025 16.8025 L -16.80251 16.8025 z" stroke-linecap="round" />
</g>
<g transform="matrix(-0.38 0.18 -0.18 -0.38 63.99 45.65)" id="wdiA4phh_NR5efG66Kn31"  >
<path style="stroke: rgb(173,86,183); stroke-width: 0; stroke-dasharray: none; stroke-linecap: butt; stroke-dashoffset: 0; stroke-linejoin: miter; stroke-miterlimit: 4; fill: rgb(228,231,255); fill-rule: nonzero; opacity: 1;" vector-effect="non-scaling-stroke"  transform=" translate(0, 0)" d="M -16.80251 -16.80251 L 16.8025 -16.80251 L 16.8025 16.8025 L -16.80251 16.8025 z" stroke-linecap="round" />
</g>
</svg>